<mxfile host="app.diagrams.net" modified="2024-01-17T18:23:10.464Z" agent="Mozilla/5.0 (X11; Linux x86_64) AppleWebKit/537.36 (KHTML, like Gecko) Chrome/120.0.0.0 Safari/537.36" etag="l6NhZF-_1ysJDRrB1XVT" version="22.1.18" type="github">
  <diagram name="Page-1" id="9MT-m8Dl6QrmPMCsnqip">
    <mxGraphModel dx="1362" dy="793" grid="1" gridSize="10" guides="1" tooltips="1" connect="1" arrows="1" fold="1" page="1" pageScale="1" pageWidth="850" pageHeight="1100" math="0" shadow="0">
      <root>
        <mxCell id="0" />
        <mxCell id="1" parent="0" />
        <mxCell id="6Pp_-xobYxl6A4BqYDPj-1" value="&lt;font style=&quot;font-size: 16px;&quot;&gt;Kernel execution&lt;br&gt;(Read Exec time &amp;amp; Energy Consumed)&lt;/font&gt;" style="ellipse;whiteSpace=wrap;html=1;aspect=fixed;fillColor=#dae8fc;strokeColor=#6c8ebf;" parent="1" vertex="1">
          <mxGeometry x="170" y="310" width="150.5" height="150.5" as="geometry" />
        </mxCell>
        <mxCell id="6Pp_-xobYxl6A4BqYDPj-2" value="&lt;font style=&quot;font-size: 16px;&quot;&gt;Compile C-source code&lt;/font&gt;" style="rounded=0;whiteSpace=wrap;html=1;fillColor=#fff2cc;strokeColor=#d6b656;" parent="1" vertex="1">
          <mxGeometry x="349" y="110" width="120" height="60" as="geometry" />
        </mxCell>
        <mxCell id="6Pp_-xobYxl6A4BqYDPj-3" value="&lt;font style=&quot;font-size: 16px;&quot;&gt;Enforce sleep&lt;br&gt;Set sampling frequency&amp;nbsp;&lt;/font&gt;" style="rounded=0;whiteSpace=wrap;html=1;fillColor=#fff2cc;strokeColor=#d6b656;" parent="1" vertex="1">
          <mxGeometry x="311.5" y="190" width="195" height="60" as="geometry" />
        </mxCell>
        <mxCell id="6Pp_-xobYxl6A4BqYDPj-5" value="&lt;font style=&quot;font-size: 16px;&quot;&gt;Core-Frequency&lt;br&gt;Monitoring&lt;/font&gt;" style="ellipse;whiteSpace=wrap;html=1;aspect=fixed;direction=south;fillColor=#f8cecc;strokeColor=#b85450;" parent="1" vertex="1">
          <mxGeometry x="530" y="300" width="150" height="150" as="geometry" />
        </mxCell>
        <mxCell id="6Pp_-xobYxl6A4BqYDPj-6" value="&lt;font style=&quot;font-size: 16px;&quot;&gt;Important Preparations&lt;/font&gt;" style="rounded=0;whiteSpace=wrap;html=1;fillColor=#fff2cc;strokeColor=#d6b656;" parent="1" vertex="1">
          <mxGeometry x="349" y="30" width="120" height="60" as="geometry" />
        </mxCell>
        <mxCell id="6Pp_-xobYxl6A4BqYDPj-9" value="" style="endArrow=classic;html=1;rounded=0;fillColor=#a20025;strokeColor=#6F0000;strokeWidth=4;dashed=1;dashPattern=1 1;" parent="1" target="6Pp_-xobYxl6A4BqYDPj-1" edge="1">
          <mxGeometry width="50" height="50" relative="1" as="geometry">
            <mxPoint x="330" y="250" as="sourcePoint" />
            <mxPoint x="210" y="280.5" as="targetPoint" />
          </mxGeometry>
        </mxCell>
        <mxCell id="6Pp_-xobYxl6A4BqYDPj-10" value="" style="endArrow=classic;html=1;rounded=0;exitX=0.5;exitY=1;exitDx=0;exitDy=0;strokeWidth=3;dashed=1;dashPattern=1 1;fillColor=#a20025;strokeColor=#6F0000;" parent="1" source="6Pp_-xobYxl6A4BqYDPj-3" edge="1">
          <mxGeometry width="50" height="50" relative="1" as="geometry">
            <mxPoint x="409" y="260" as="sourcePoint" />
            <mxPoint x="408.5" y="310.5" as="targetPoint" />
          </mxGeometry>
        </mxCell>
        <mxCell id="6Pp_-xobYxl6A4BqYDPj-11" value="" style="endArrow=classic;html=1;rounded=0;fillColor=#a20025;strokeColor=#6F0000;strokeWidth=3;dashed=1;dashPattern=1 1;" parent="1" target="6Pp_-xobYxl6A4BqYDPj-5" edge="1">
          <mxGeometry width="50" height="50" relative="1" as="geometry">
            <mxPoint x="490" y="250" as="sourcePoint" />
            <mxPoint x="538.1475896082075" y="311.65240132758254" as="targetPoint" />
          </mxGeometry>
        </mxCell>
        <mxCell id="6Pp_-xobYxl6A4BqYDPj-14" value="" style="endArrow=classic;html=1;rounded=0;exitX=0.655;exitY=0.964;exitDx=0;exitDy=0;exitPerimeter=0;entryX=0;entryY=0;entryDx=0;entryDy=0;fillColor=#a20025;strokeColor=#6F0000;strokeWidth=3;dashed=1;dashPattern=1 1;" parent="1" edge="1">
          <mxGeometry width="50" height="50" relative="1" as="geometry">
            <mxPoint x="246.25" y="459.9999999999999" as="sourcePoint" />
            <mxPoint x="355" y="520" as="targetPoint" />
          </mxGeometry>
        </mxCell>
        <mxCell id="6Pp_-xobYxl6A4BqYDPj-17" value="&lt;font style=&quot;font-size: 16px;&quot;&gt;CSV writeback&lt;/font&gt;" style="rounded=0;whiteSpace=wrap;html=1;fillColor=#fff2cc;strokeColor=#d6b656;" parent="1" vertex="1">
          <mxGeometry x="360" y="610" width="120" height="60" as="geometry" />
        </mxCell>
        <mxCell id="6Pp_-xobYxl6A4BqYDPj-18" value="&lt;font style=&quot;font-size: 16px;&quot;&gt;Ground-Truth and Plots generation&lt;/font&gt;" style="rounded=0;whiteSpace=wrap;html=1;fillColor=#fff2cc;strokeColor=#d6b656;" parent="1" vertex="1">
          <mxGeometry x="360" y="690" width="120" height="60" as="geometry" />
        </mxCell>
        <mxCell id="6Pp_-xobYxl6A4BqYDPj-20" value="&lt;font style=&quot;font-size: 16px;&quot;&gt;Core-Temperature Monitoring&lt;/font&gt;" style="ellipse;whiteSpace=wrap;html=1;aspect=fixed;fillColor=#d5e8d4;strokeColor=#82b366;" parent="1" vertex="1">
          <mxGeometry x="340" y="310.5" width="150" height="150" as="geometry" />
        </mxCell>
        <mxCell id="6Pp_-xobYxl6A4BqYDPj-25" value="" style="endArrow=classic;html=1;rounded=0;exitX=0.655;exitY=0.964;exitDx=0;exitDy=0;exitPerimeter=0;entryX=1;entryY=0;entryDx=0;entryDy=0;fillColor=#a20025;strokeColor=#6F0000;strokeWidth=3;dashed=1;dashPattern=1 1;" parent="1" edge="1">
          <mxGeometry width="50" height="50" relative="1" as="geometry">
            <mxPoint x="560" y="439.9999999999999" as="sourcePoint" />
            <mxPoint x="475" y="520" as="targetPoint" />
          </mxGeometry>
        </mxCell>
        <mxCell id="6Pp_-xobYxl6A4BqYDPj-26" value="" style="endArrow=classic;html=1;rounded=0;exitX=0.5;exitY=1;exitDx=0;exitDy=0;strokeWidth=3;dashed=1;dashPattern=1 1;fillColor=#a20025;strokeColor=#6F0000;" parent="1" edge="1">
          <mxGeometry width="50" height="50" relative="1" as="geometry">
            <mxPoint x="415" y="459" as="sourcePoint" />
            <mxPoint x="414.5" y="519.5" as="targetPoint" />
          </mxGeometry>
        </mxCell>
        <mxCell id="6Pp_-xobYxl6A4BqYDPj-28" value="&lt;font style=&quot;font-size: 16px;&quot;&gt;Collate results in main thread&lt;/font&gt;" style="rounded=0;whiteSpace=wrap;html=1;fillColor=#fff2cc;strokeColor=#d6b656;" parent="1" vertex="1">
          <mxGeometry x="360" y="524" width="120" height="60" as="geometry" />
        </mxCell>
        <mxCell id="6Pp_-xobYxl6A4BqYDPj-29" value="" style="endArrow=classic;html=1;rounded=0;" parent="1" edge="1">
          <mxGeometry width="50" height="50" relative="1" as="geometry">
            <mxPoint x="408.5" y="90" as="sourcePoint" />
            <mxPoint x="408.5" y="120" as="targetPoint" />
          </mxGeometry>
        </mxCell>
        <mxCell id="6Pp_-xobYxl6A4BqYDPj-30" value="" style="endArrow=classic;html=1;rounded=0;" parent="1" edge="1">
          <mxGeometry width="50" height="50" relative="1" as="geometry">
            <mxPoint x="408.5" y="170" as="sourcePoint" />
            <mxPoint x="408.5" y="200" as="targetPoint" />
          </mxGeometry>
        </mxCell>
        <mxCell id="6Pp_-xobYxl6A4BqYDPj-31" value="" style="endArrow=classic;html=1;rounded=0;" parent="1" edge="1">
          <mxGeometry width="50" height="50" relative="1" as="geometry">
            <mxPoint x="419.5" y="584" as="sourcePoint" />
            <mxPoint x="419.5" y="614" as="targetPoint" />
          </mxGeometry>
        </mxCell>
        <mxCell id="6Pp_-xobYxl6A4BqYDPj-32" value="" style="endArrow=classic;html=1;rounded=0;" parent="1" edge="1">
          <mxGeometry width="50" height="50" relative="1" as="geometry">
            <mxPoint x="420" y="670" as="sourcePoint" />
            <mxPoint x="419.5" y="690" as="targetPoint" />
          </mxGeometry>
        </mxCell>
      </root>
    </mxGraphModel>
  </diagram>
</mxfile>
